<svg width="137" height="32" viewBox="0 0 137 32" fill="none" xmlns="http://www.w3.org/2000/svg">
<path d="M10.7625 4.28125C10.3688 4.39375 10.1813 4.50625 9.82501 4.8375C9.55626 5.0875 9.25001 5.59375 9.25001 5.78125C9.25001 5.9 9.30626 5.9 8.61251 5.725C7.78126 5.50625 7.14376 5.41875 6.28126 5.4125C5.58126 5.40625 5.50626 5.41875 5.17501 5.58125C4.77501 5.775 4.40001 6.16875 4.17501 6.6125L4.03126 6.90625V13.0625C4.03126 19.6625 4.02501 19.4625 4.35626 20.5312C4.96876 22.5062 6.58126 24.3 8.48751 25.125C9.72501 25.6562 10.3313 25.75 12.6625 25.75C14.3625 25.75 14.5188 25.7437 14.8438 25.6187C15.3 25.45 15.8188 24.9687 16.0438 24.5125C16.2188 24.1562 16.2188 24.15 16.2375 22.7125L16.2563 21.2687L16.7188 21.4437C16.975 21.5437 17.4438 21.6937 17.7625 21.7687L18.3438 21.9187L18.375 24.1937C18.4063 26.125 18.425 26.5063 18.5188 26.7375C18.7688 27.3813 19.3313 27.9 19.9938 28.0875C20.4 28.2063 21.7375 28.225 22.475 28.1188C24.6375 27.8188 26.6063 26.2937 27.3688 24.325C27.8063 23.1812 27.7813 23.5687 27.7813 18.0312C27.7813 13.0375 27.7813 13.0312 27.6375 12.375C27.2563 10.6375 26.5438 9.16875 25.4625 7.86875C23.9438 6.04375 21.825 4.8125 19.375 4.3375C18.6188 4.1875 11.275 4.14375 10.7625 4.28125ZM19.2813 6.15C21.6563 6.71875 23.5 8.00625 24.7625 9.975C25.2625 10.7562 25.725 11.9562 25.9188 13C26.0188 13.5375 26.0313 14.0312 26.0313 18.0937C26.0313 22.5812 26.0313 22.5937 25.8875 23.0812C25.4625 24.5562 24.4063 25.675 22.9938 26.1562C22.5313 26.3125 22.3563 26.3375 21.4813 26.3625C20.5188 26.3875 20.4875 26.3875 20.3375 26.2437L20.1875 26.1063V24.1125V22.125H21.475C22.925 22.125 23.0375 22.0937 23.2563 21.675C23.4625 21.2687 23.3875 20.8937 23.0313 20.5625C22.8688 20.4062 22.8563 20.4062 21.2938 20.3687C19.2375 20.3187 18.3125 20.15 16.9438 19.5875C14.3 18.4937 12.1375 16.0812 11.3438 13.3312C11.0063 12.15 10.9875 11.9625 10.9563 9.0625L10.925 6.34375L11.0625 6.16875L11.2 5.99375L15.025 6.01875C18.3313 6.0375 18.9 6.05625 19.2813 6.15ZM7.06251 7.25C7.66251 7.325 8.37501 7.50625 8.82501 7.7L9.12501 7.825V9.30625C9.12501 11.6875 9.26876 12.8187 9.75626 14.275C10.3375 16.0187 11.1813 17.3812 12.525 18.7187C13.05 19.2437 13.625 19.75 13.95 19.9687L14.5 20.3437L14.4813 22.0187L14.4688 23.7L14.2875 23.8562L14.1 24.0125L12.4438 23.9812C11.2563 23.9562 10.6625 23.9187 10.3625 23.85C8.11876 23.3312 6.36251 21.5562 5.91251 19.3625C5.82501 18.9437 5.81251 18.125 5.81251 13.1062C5.81251 8.70625 5.83126 7.31875 5.88751 7.2625C5.98126 7.16875 6.36876 7.16875 7.06251 7.25Z" fill="black"/>
<path d="M21.6751 14.3437C21.4751 14.4125 21.3064 14.525 21.1314 14.725C20.6251 15.3 20.6564 16.1 21.2126 16.6125C21.6564 17.025 22.1814 17.1062 22.7251 16.85C23.9564 16.2812 23.6251 14.4062 22.2751 14.2812C22.0939 14.2625 21.8439 14.2937 21.6751 14.3437Z" fill="black"/>
<path d="M35.4114 13.038H37.5204V22.5H35.4114V13.038ZM40.9404 14.843C40.2564 14.843 39.6674 14.9887 39.1734 15.28C38.6921 15.5713 38.3057 15.926 38.0144 16.344C37.7231 16.762 37.5204 17.1673 37.4064 17.56L37.3874 16.496C37.4001 16.3567 37.4444 16.1477 37.5204 15.869C37.5964 15.5777 37.7104 15.261 37.8624 14.919C38.0271 14.577 38.2424 14.2477 38.5084 13.931C38.7871 13.6017 39.1227 13.3357 39.5154 13.133C39.9207 12.9303 40.3957 12.829 40.9404 12.829V14.843ZM50.4404 19.384H52.4734C52.3721 20.03 52.1187 20.6063 51.7134 21.113C51.3207 21.607 50.7824 21.9997 50.0984 22.291C49.4144 22.5697 48.5974 22.709 47.6474 22.709C46.5707 22.709 45.6081 22.5127 44.7594 22.12C43.9107 21.7147 43.2457 21.1447 42.7644 20.41C42.2831 19.6753 42.0424 18.8013 42.0424 17.788C42.0424 16.7873 42.2767 15.9133 42.7454 15.166C43.2141 14.4187 43.8601 13.8423 44.6834 13.437C45.5194 13.0317 46.4821 12.829 47.5714 12.829C48.6987 12.829 49.6361 13.0317 50.3834 13.437C51.1434 13.8297 51.7071 14.425 52.0744 15.223C52.4417 16.0083 52.5937 17.0027 52.5304 18.206H44.1894C44.2527 18.738 44.4237 19.2193 44.7024 19.65C44.9937 20.068 45.3864 20.3973 45.8804 20.638C46.3744 20.866 46.9507 20.98 47.6094 20.98C48.3441 20.98 48.9584 20.8343 49.4524 20.543C49.9591 20.2517 50.2884 19.8653 50.4404 19.384ZM47.5144 14.539C46.6531 14.539 45.9437 14.7543 45.3864 15.185C44.8291 15.603 44.4681 16.1413 44.3034 16.8H50.4024C50.3517 16.0907 50.0667 15.5397 49.5474 15.147C49.0281 14.7417 48.3504 14.539 47.5144 14.539ZM54.4114 13.038H56.5204V22.5H54.4114V13.038ZM60.5104 12.829C61.0551 12.829 61.5554 12.905 62.0114 13.057C62.4801 13.209 62.8791 13.4433 63.2084 13.76C63.5504 14.064 63.8101 14.444 63.9874 14.9C64.1774 15.356 64.2724 15.8943 64.2724 16.515V22.5H62.1634V16.933C62.1634 16.1603 61.9734 15.5903 61.5934 15.223C61.2261 14.843 60.6434 14.653 59.8454 14.653C59.2374 14.653 58.6801 14.786 58.1734 15.052C57.6794 15.3053 57.2741 15.641 56.9574 16.059C56.6407 16.4643 56.4571 16.914 56.4064 17.408L56.3874 16.382C56.4507 15.9133 56.5901 15.47 56.8054 15.052C57.0207 14.6213 57.3057 14.2413 57.6604 13.912C58.0151 13.57 58.4331 13.304 58.9144 13.114C59.3957 12.924 59.9277 12.829 60.5104 12.829ZM65.9368 13.038H72.6248V14.767H65.9368V13.038ZM68.2168 10.492H70.3448V22.5H68.2168V10.492ZM76.7535 10.188V20.638H84.4295V22.5H74.5875V10.188H76.7535ZM91.1749 22.709C90.1236 22.709 89.1799 22.519 88.3439 22.139C87.5079 21.759 86.8492 21.2017 86.3679 20.467C85.8866 19.7323 85.6459 18.8393 85.6459 17.788C85.6459 16.7493 85.8866 15.8627 86.3679 15.128C86.8492 14.3807 87.5079 13.8107 88.3439 13.418C89.1799 13.0253 90.1236 12.829 91.1749 12.829C92.2262 12.829 93.1636 13.0253 93.9869 13.418C94.8102 13.8107 95.4562 14.3807 95.9249 15.128C96.4062 15.8627 96.6469 16.7493 96.6469 17.788C96.6469 18.8393 96.4062 19.7323 95.9249 20.467C95.4562 21.2017 94.8102 21.759 93.9869 22.139C93.1636 22.519 92.2262 22.709 91.1749 22.709ZM91.1749 20.98C91.7829 20.98 92.3402 20.8597 92.8469 20.619C93.3536 20.3783 93.7526 20.0173 94.0439 19.536C94.3479 19.0547 94.4999 18.472 94.4999 17.788C94.4999 17.104 94.3479 16.5213 94.0439 16.04C93.7526 15.5587 93.3536 15.1913 92.8469 14.938C92.3529 14.672 91.7956 14.539 91.1749 14.539C90.5542 14.539 89.9906 14.6657 89.4839 14.919C88.9772 15.1723 88.5656 15.5397 88.2489 16.021C87.9449 16.5023 87.7929 17.0913 87.7929 17.788C87.7929 18.472 87.9449 19.0547 88.2489 19.536C88.5529 20.0173 88.9582 20.3783 89.4649 20.619C89.9842 20.8597 90.5542 20.98 91.1749 20.98ZM108.718 18.833C108.642 19.6437 108.383 20.3403 107.939 20.923C107.496 21.5057 106.901 21.949 106.153 22.253C105.419 22.557 104.57 22.709 103.607 22.709C102.569 22.709 101.625 22.519 100.776 22.139C99.9404 21.759 99.2754 21.2017 98.7814 20.467C98.2874 19.7323 98.0404 18.8393 98.0404 17.788C98.0404 16.7367 98.2874 15.8437 98.7814 15.109C99.2754 14.3743 99.9404 13.8107 100.776 13.418C101.625 13.0253 102.569 12.829 103.607 12.829C104.57 12.829 105.419 12.9873 106.153 13.304C106.888 13.608 107.477 14.045 107.92 14.615C108.364 15.185 108.623 15.8753 108.699 16.686H106.761C106.546 16.0147 106.153 15.4953 105.583 15.128C105.026 14.748 104.367 14.558 103.607 14.558C102.987 14.558 102.417 14.6847 101.897 14.938C101.378 15.1787 100.96 15.5397 100.643 16.021C100.339 16.4897 100.187 17.0787 100.187 17.788C100.187 18.4847 100.339 19.0737 100.643 19.555C100.96 20.0363 101.378 20.3973 101.897 20.638C102.417 20.866 102.987 20.98 103.607 20.98C104.443 20.98 105.127 20.7963 105.659 20.429C106.204 20.049 106.578 19.517 106.78 18.833H108.718ZM114.794 22.709C113.933 22.709 113.141 22.5 112.419 22.082C111.71 21.664 111.14 21.0877 110.709 20.353C110.291 19.6057 110.082 18.7507 110.082 17.788C110.082 16.8 110.298 15.9387 110.728 15.204C111.159 14.4567 111.742 13.874 112.476 13.456C113.211 13.038 114.034 12.829 114.946 12.829C115.96 12.829 116.764 13.0507 117.359 13.494C117.955 13.9373 118.379 14.5327 118.632 15.28C118.886 16.0273 119.012 16.8633 119.012 17.788C119.012 18.3073 118.936 18.8583 118.784 19.441C118.632 20.011 118.392 20.543 118.062 21.037C117.746 21.531 117.315 21.9363 116.77 22.253C116.238 22.557 115.58 22.709 114.794 22.709ZM115.44 20.961C116.15 20.961 116.751 20.828 117.245 20.562C117.752 20.2833 118.132 19.9033 118.385 19.422C118.651 18.9407 118.784 18.396 118.784 17.788C118.784 17.1167 118.651 16.5467 118.385 16.078C118.119 15.5967 117.739 15.2293 117.245 14.976C116.751 14.71 116.15 14.577 115.44 14.577C114.427 14.577 113.642 14.8747 113.084 15.47C112.527 16.0653 112.248 16.838 112.248 17.788C112.248 18.4087 112.381 18.9597 112.647 19.441C112.926 19.9223 113.306 20.296 113.787 20.562C114.269 20.828 114.82 20.961 115.44 20.961ZM118.784 13.038H120.912V22.5H118.936C118.936 22.5 118.924 22.3797 118.898 22.139C118.873 21.8983 118.848 21.607 118.822 21.265C118.797 20.9103 118.784 20.5747 118.784 20.258V13.038ZM123.421 9.238H125.53V22.5H123.421V9.238ZM127.674 19.384H129.631C129.732 19.8653 129.992 20.258 130.41 20.562C130.828 20.8533 131.392 20.999 132.101 20.999C132.557 20.999 132.912 20.9483 133.165 20.847C133.431 20.7457 133.615 20.6063 133.716 20.429C133.83 20.2517 133.887 20.049 133.887 19.821C133.887 19.5423 133.805 19.327 133.64 19.175C133.488 19.023 133.26 18.8963 132.956 18.795C132.652 18.6937 132.272 18.605 131.816 18.529C131.347 18.415 130.885 18.2883 130.429 18.149C129.973 18.0097 129.561 17.8387 129.194 17.636C128.827 17.4207 128.535 17.1547 128.32 16.838C128.117 16.5087 128.016 16.1097 128.016 15.641C128.016 15.2103 128.111 14.824 128.301 14.482C128.504 14.1273 128.782 13.8297 129.137 13.589C129.492 13.3483 129.91 13.1647 130.391 13.038C130.872 12.8987 131.398 12.829 131.968 12.829C132.791 12.829 133.475 12.962 134.02 13.228C134.577 13.494 134.995 13.8677 135.274 14.349C135.565 14.8303 135.711 15.3813 135.711 16.002H133.849C133.748 15.4953 133.551 15.128 133.26 14.9C132.969 14.672 132.532 14.558 131.949 14.558C131.366 14.558 130.923 14.6593 130.619 14.862C130.315 15.0647 130.163 15.3433 130.163 15.698C130.163 15.964 130.258 16.1793 130.448 16.344C130.651 16.496 130.936 16.629 131.303 16.743C131.67 16.857 132.101 16.971 132.595 17.085C133.051 17.2117 133.482 17.3447 133.887 17.484C134.292 17.6107 134.653 17.7753 134.97 17.978C135.299 18.168 135.559 18.4213 135.749 18.738C135.939 19.0547 136.034 19.4473 136.034 19.916C136.034 20.4987 135.876 20.999 135.559 21.417C135.255 21.835 134.812 22.158 134.229 22.386C133.646 22.6013 132.943 22.709 132.12 22.709C131.398 22.709 130.771 22.6267 130.239 22.462C129.72 22.2973 129.283 22.082 128.928 21.816C128.586 21.55 128.32 21.265 128.13 20.961C127.94 20.657 127.807 20.3657 127.731 20.087C127.668 19.8083 127.649 19.574 127.674 19.384Z" fill="#2C1815"/>
</svg>
