<svg width="78" height="84" viewBox="0 0 78 84" fill="none" xmlns="http://www.w3.org/2000/svg">
<g clip-path="url(#clip0_1174_411)">
<path d="M59.4398 83.9997C58.9838 83.9994 58.5284 83.9634 58.0779 83.8921L7.45504 75.8788C6.29243 75.6946 5.17811 75.2775 4.17775 74.6521C3.17738 74.0267 2.3112 73.2055 1.63024 72.2371C0.949276 71.2687 0.467309 70.1725 0.212728 69.0132C-0.0418526 67.854 -0.0638954 66.655 0.147901 65.487L10.7087 7.29499C11.1139 5.02333 12.3809 3.00053 14.2405 1.65625C16.1002 0.311977 18.4059 -0.247874 20.6681 0.0956171L70.4662 7.5017C71.6258 7.67432 72.7396 8.07842 73.7425 8.6904C74.7454 9.30237 75.6174 10.1099 76.3074 11.0659C76.9974 12.0218 77.4917 13.1069 77.7612 14.2578C78.0307 15.4087 78.0702 16.6023 77.8772 17.7687L68.1407 76.5687C67.7903 78.6431 66.7252 80.5262 65.1332 81.8857C63.5412 83.2452 61.5246 83.9939 59.4389 83.9997H59.4398Z" fill="#FFEDE6"/>
<path d="M61.4294 23.5492C61.2728 23.5492 61.1164 23.5344 60.9625 23.505L21.2706 16.0359C20.6106 15.9117 20.0265 15.528 19.6468 14.9693C19.2671 14.4106 19.123 13.7226 19.246 13.0566C19.3691 12.3907 19.7494 11.8013 20.3031 11.4182C20.8569 11.0351 21.5388 10.8897 22.1988 11.0139L61.8907 18.4841C62.511 18.6008 63.0657 18.947 63.4463 19.4548C63.8268 19.9626 64.0058 20.5954 63.9481 21.2294C63.8903 21.8633 63.6001 22.4527 63.1342 22.882C62.6683 23.3113 62.0604 23.5497 61.4294 23.5504V23.5492Z" fill="#FFCEBD"/>
<path d="M57.6866 36.9187C57.5711 36.9189 57.4557 36.9111 57.3412 36.8952L19.2868 31.6662C18.6237 31.5722 18.0245 31.217 17.6204 30.6782C17.2163 30.1395 17.0402 29.4611 17.1306 28.7917C17.2211 28.1223 17.5707 27.5162 18.103 27.1063C18.6352 26.6963 19.3068 26.5158 19.9707 26.6043L58.0249 31.8332C58.6606 31.9206 59.2397 32.2481 59.6452 32.7497C60.0507 33.2514 60.2523 33.8896 60.2093 34.5354C60.1664 35.1812 59.882 35.7865 59.4137 36.2289C58.9453 36.6713 58.3281 36.9179 57.6866 36.9187Z" fill="#FFCEBD"/>
<path d="M42.4087 50.6425C42.2722 50.6423 42.1359 50.6311 42.0012 50.6091L16.2814 46.4096C15.6186 46.3013 15.0255 45.9318 14.6327 45.3823C14.2399 44.8328 14.0795 44.1484 14.1869 43.4796C14.2942 42.8108 14.6605 42.2124 15.2051 41.8161C15.7497 41.4197 16.4281 41.2579 17.0909 41.3662L42.8107 45.5657C43.4386 45.6684 44.0051 46.0059 44.3977 46.5109C44.7903 47.0159 44.9801 47.6514 44.9294 48.2912C44.8788 48.931 44.5913 49.528 44.1242 49.9637C43.6571 50.3994 43.0446 50.6417 42.4085 50.6425H42.4087Z" fill="#FFCEBD"/>
<path d="M61.1952 74.0729C61.0586 74.0727 60.9224 74.0615 60.7876 74.0395L43.7072 71.196C43.0443 71.0877 42.4513 70.7181 42.0585 70.1686C41.6657 69.6192 41.5053 68.9347 41.6126 68.2659C41.72 67.5971 42.0863 66.9988 42.6309 66.6024C43.1755 66.2061 43.8538 66.0443 44.5167 66.1526L61.5971 68.9961C62.225 69.0989 62.7916 69.4363 63.1841 69.9413C63.5767 70.4463 63.7665 71.0819 63.7159 71.7216C63.6652 72.3614 63.3777 72.9585 62.9106 73.3941C62.4435 73.8298 61.831 74.0721 61.1949 74.0729H61.1952Z" fill="#FF896B"/>
</g>
<defs>
<clipPath id="clip0_1174_411">
<rect width="78" height="84" fill="white"/>
</clipPath>
</defs>
</svg>
