<svg width="32" height="32" viewBox="0 0 32 32" fill="none" xmlns="http://www.w3.org/2000/svg">
<g clip-path="url(#clip0_1402_2351)">
<rect width="32" height="32" rx="5" fill="#FFF5F0"/>
<path d="M10.7625 4.28125C10.3688 4.39375 10.1813 4.50625 9.82501 4.8375C9.55626 5.0875 9.25001 5.59375 9.25001 5.78125C9.25001 5.9 9.30626 5.9 8.61251 5.725C7.78126 5.50625 7.14376 5.41875 6.28126 5.4125C5.58126 5.40625 5.50626 5.41875 5.17501 5.58125C4.77501 5.775 4.40001 6.16875 4.17501 6.6125L4.03126 6.90625V13.0625C4.03126 19.6625 4.02501 19.4625 4.35626 20.5312C4.96876 22.5062 6.58126 24.3 8.48751 25.125C9.72501 25.6562 10.3313 25.75 12.6625 25.75C14.3625 25.75 14.5188 25.7437 14.8438 25.6187C15.3 25.45 15.8188 24.9687 16.0438 24.5125C16.2188 24.1562 16.2188 24.15 16.2375 22.7125L16.2563 21.2687L16.7188 21.4437C16.975 21.5437 17.4438 21.6937 17.7625 21.7687L18.3438 21.9187L18.375 24.1937C18.4063 26.125 18.425 26.5063 18.5188 26.7375C18.7688 27.3813 19.3313 27.9 19.9938 28.0875C20.4 28.2063 21.7375 28.225 22.475 28.1188C24.6375 27.8188 26.6063 26.2937 27.3688 24.325C27.8063 23.1812 27.7813 23.5687 27.7813 18.0312C27.7813 13.0375 27.7813 13.0312 27.6375 12.375C27.2563 10.6375 26.5438 9.16875 25.4625 7.86875C23.9438 6.04375 21.825 4.8125 19.375 4.3375C18.6188 4.1875 11.275 4.14375 10.7625 4.28125ZM19.2813 6.15C21.6563 6.71875 23.5 8.00625 24.7625 9.975C25.2625 10.7562 25.725 11.9562 25.9188 13C26.0188 13.5375 26.0313 14.0312 26.0313 18.0937C26.0313 22.5812 26.0313 22.5937 25.8875 23.0812C25.4625 24.5562 24.4063 25.675 22.9938 26.1563C22.5313 26.3125 22.3563 26.3375 21.4813 26.3625C20.5188 26.3875 20.4875 26.3875 20.3375 26.2438L20.1875 26.1063V24.1125V22.125H21.475C22.925 22.125 23.0375 22.0937 23.2563 21.675C23.4625 21.2687 23.3875 20.8937 23.0313 20.5625C22.8688 20.4062 22.8563 20.4062 21.2938 20.3687C19.2375 20.3187 18.3125 20.15 16.9438 19.5875C14.3 18.4937 12.1375 16.0812 11.3438 13.3312C11.0063 12.15 10.9875 11.9625 10.9563 9.0625L10.925 6.34375L11.0625 6.16875L11.2 5.99375L15.025 6.01875C18.3313 6.0375 18.9 6.05625 19.2813 6.15ZM7.06251 7.25C7.66251 7.325 8.37501 7.50625 8.82501 7.7L9.12501 7.825V9.30625C9.12501 11.6875 9.26876 12.8187 9.75626 14.275C10.3375 16.0187 11.1813 17.3812 12.525 18.7187C13.05 19.2437 13.625 19.75 13.95 19.9687L14.5 20.3437L14.4813 22.0187L14.4688 23.7L14.2875 23.8562L14.1 24.0125L12.4438 23.9812C11.2563 23.9562 10.6625 23.9187 10.3625 23.85C8.11876 23.3312 6.36251 21.5562 5.91251 19.3625C5.82501 18.9437 5.81251 18.125 5.81251 13.1062C5.81251 8.70625 5.83126 7.31875 5.88751 7.2625C5.98126 7.16875 6.36876 7.16875 7.06251 7.25Z" fill="#2C1815"/>
<path d="M21.6742 14.3437C21.4742 14.4125 21.3054 14.525 21.1304 14.725C20.6242 15.3 20.6554 16.1 21.2117 16.6125C21.6554 17.025 22.1804 17.1062 22.7242 16.85C23.9554 16.2812 23.6242 14.4062 22.2742 14.2812C22.0929 14.2625 21.8429 14.2937 21.6742 14.3437Z" fill="#2C1815"/>
</g>
<defs>
<clipPath id="clip0_1402_2351">
<rect width="32" height="32" rx="5" fill="white"/>
</clipPath>
</defs>
</svg>
